<svg width="41" height="40" viewBox="0 0 41 40" fill="none" xmlns="http://www.w3.org/2000/svg">
<path opacity="0.2" d="M17.3752 11.25V22.5H6.75024C6.41872 22.5 6.10078 22.3683 5.86636 22.1339C5.63194 21.8995 5.50024 21.5815 5.50024 21.25V11.25C5.50024 10.9185 5.63194 10.6005 5.86636 10.3661C6.10078 10.1317 6.41872 10 6.75024 10H16.1252C16.4568 10 16.7747 10.1317 17.0091 10.3661C17.2435 10.6005 17.3752 10.9185 17.3752 11.25ZM34.2502 10H24.8752C24.5437 10 24.2258 10.1317 23.9914 10.3661C23.7569 10.6005 23.6252 10.9185 23.6252 11.25V21.25C23.6252 21.5815 23.7569 21.8995 23.9914 22.1339C24.2258 22.3683 24.5437 22.5 24.8752 22.5H35.5002V11.25C35.5002 10.9185 35.3685 10.6005 35.1341 10.3661C34.8997 10.1317 34.5818 10 34.2502 10Z" fill="#EED920"/>
<path d="M16.125 8.75H6.75C6.08696 8.75 5.45107 9.01339 4.98223 9.48223C4.51339 9.95107 4.25 10.587 4.25 11.25V21.25C4.25 21.913 4.51339 22.5489 4.98223 23.0178C5.45107 23.4866 6.08696 23.75 6.75 23.75H16.125V25C16.125 26.3261 15.5982 27.5979 14.6605 28.5355C13.7229 29.4732 12.4511 30 11.125 30C10.7935 30 10.4755 30.1317 10.2411 30.3661C10.0067 30.6005 9.875 30.9185 9.875 31.25C9.875 31.5815 10.0067 31.8995 10.2411 32.1339C10.4755 32.3683 10.7935 32.5 11.125 32.5C13.1135 32.4979 15.0199 31.7071 16.426 30.301C17.8321 28.8949 18.6229 26.9885 18.625 25V11.25C18.625 10.587 18.3616 9.95107 17.8928 9.48223C17.4239 9.01339 16.788 8.75 16.125 8.75ZM16.125 21.25H6.75V11.25H16.125V21.25ZM34.25 8.75H24.875C24.212 8.75 23.5761 9.01339 23.1072 9.48223C22.6384 9.95107 22.375 10.587 22.375 11.25V21.25C22.375 21.913 22.6384 22.5489 23.1072 23.0178C23.5761 23.4866 24.212 23.75 24.875 23.75H34.25V25C34.25 26.3261 33.7232 27.5979 32.7855 28.5355C31.8479 29.4732 30.5761 30 29.25 30C28.9185 30 28.6005 30.1317 28.3661 30.3661C28.1317 30.6005 28 30.9185 28 31.25C28 31.5815 28.1317 31.8995 28.3661 32.1339C28.6005 32.3683 28.9185 32.5 29.25 32.5C31.2385 32.4979 33.1449 31.7071 34.551 30.301C35.9571 28.8949 36.7479 26.9885 36.75 25V11.25C36.75 10.587 36.4866 9.95107 36.0178 9.48223C35.5489 9.01339 34.913 8.75 34.25 8.75ZM34.25 21.25H24.875V11.25H34.25V21.25Z" fill="#C8BF70"/>
</svg>
